<svg xmlns="http://www.w3.org/2000/svg" xmlns:xlink="http://www.w3.org/1999/xlink" width="500" zoomAndPan="magnify" viewBox="0 0 375 89.999999" height="120" preserveAspectRatio="xMidYMid meet" version="1.0"><defs><g/></defs><g fill="#008080" fill-opacity="1"><g transform="translate(8.217564, 59.457079)"><g><path d="M 48.796875 -7.703125 C 49.015625 -7.585938 49.09375 -7.410156 49.03125 -7.171875 C 48.96875 -6.941406 48.847656 -6.695312 48.671875 -6.4375 C 48.492188 -6.1875 48.332031 -5.972656 48.1875 -5.796875 C 48.125 -5.722656 48.082031 -5.660156 48.0625 -5.609375 C 46.789062 -3.859375 45.691406 -2.019531 44.765625 -0.09375 C 43.835938 1.832031 42.960938 3.796875 42.140625 5.796875 C 41.796875 6.566406 41.46875 7.335938 41.15625 8.109375 C 40.40625 9.796875 39.675781 11.5 38.96875 13.21875 C 37.757812 16.144531 36.488281 19.054688 35.15625 21.953125 C 34.675781 22.960938 34.140625 23.945312 33.546875 24.90625 C 33.066406 25.695312 32.335938 26.082031 31.359375 26.0625 C 30.546875 26.082031 30.050781 25.707031 29.875 24.9375 C 29.695312 24.28125 29.597656 23.601562 29.578125 22.90625 C 29.472656 20.300781 29.539062 17.703125 29.78125 15.109375 C 29.9375 13.304688 30.078125 11.515625 30.203125 9.734375 C 30.328125 7.804688 30.476562 5.878906 30.65625 3.953125 C 31.03125 -0.429688 31.445312 -4.820312 31.90625 -9.21875 C 32.4375 -14.25 32.992188 -19.265625 33.578125 -24.265625 C 34.578125 -32.753906 35.46875 -41.269531 36.25 -49.8125 C 36.28125 -50.34375 36.285156 -50.78125 36.265625 -51.125 C 36.253906 -51.476562 36.179688 -51.609375 36.046875 -51.515625 C 35.910156 -51.429688 35.707031 -51.023438 35.4375 -50.296875 C 32.90625 -43.015625 30.570312 -35.675781 28.4375 -28.28125 C 28.34375 -28.007812 28.269531 -27.742188 28.21875 -27.484375 C 26.925781 -23.085938 25.625 -18.710938 24.3125 -14.359375 C 23.820312 -12.660156 23.253906 -10.941406 22.609375 -9.203125 C 21.972656 -7.460938 21.238281 -5.828125 20.40625 -4.296875 C 20.144531 -3.847656 19.8125 -3.539062 19.40625 -3.375 C 19 -3.21875 18.535156 -3.171875 18.015625 -3.234375 C 17.484375 -3.273438 17.09375 -3.53125 16.84375 -4 C 16.625 -4.445312 16.488281 -4.929688 16.4375 -5.453125 C 16.382812 -6.054688 16.320312 -6.664062 16.25 -7.28125 C 16.082031 -8.644531 15.945312 -10.003906 15.84375 -11.359375 C 15.539062 -15.148438 15.144531 -18.953125 14.65625 -22.765625 C 14.164062 -26.578125 13.53125 -30.34375 12.75 -34.0625 C 12.53125 -35.007812 12.210938 -34.984375 11.796875 -33.984375 C 11.390625 -32.992188 10.921875 -31.332031 10.390625 -29 C 9.867188 -26.664062 9.3125 -23.976562 8.71875 -20.9375 C 8.132812 -17.894531 7.566406 -14.796875 7.015625 -11.640625 C 6.472656 -8.492188 5.972656 -5.617188 5.515625 -3.015625 C 4.835938 1.035156 4.378906 3.617188 4.140625 4.734375 C 3.953125 5.523438 3.6875 6.285156 3.34375 7.015625 C 3.1875 7.328125 2.96875 7.535156 2.6875 7.640625 C 2.414062 7.753906 2.109375 7.789062 1.765625 7.75 C 1.085938 7.664062 0.671875 7.273438 0.515625 6.578125 C 0.453125 6.203125 0.421875 5.828125 0.421875 5.453125 C 0.390625 5.148438 0.375 4.847656 0.375 4.546875 C 0.320312 3.367188 0.285156 2.179688 0.265625 0.984375 C 0.0859375 -8.210938 0.140625 -17.414062 0.421875 -26.625 C 0.609375 -32.445312 0.78125 -38.28125 0.9375 -44.125 C 0.9375 -44.75 0.9375 -45.382812 0.9375 -46.03125 C 0.914062 -46.625 0.914062 -47.234375 0.9375 -47.859375 C 0.957031 -48.328125 1.128906 -48.648438 1.453125 -48.828125 C 1.785156 -49.015625 2.175781 -49.007812 2.625 -48.8125 C 2.800781 -48.757812 2.921875 -48.664062 2.984375 -48.53125 C 3.046875 -48.394531 3.085938 -48.25 3.109375 -48.09375 C 3.304688 -46.476562 3.375 -44.867188 3.3125 -43.265625 C 3.28125 -42.304688 3.25 -41.34375 3.21875 -40.375 C 3.144531 -37.738281 3.054688 -35.101562 2.953125 -32.46875 C 2.828125 -29.0625 2.742188 -25.664062 2.703125 -22.28125 C 2.648438 -19.78125 2.597656 -17.273438 2.546875 -14.765625 C 2.472656 -12.109375 2.445312 -9.457031 2.46875 -6.8125 C 2.46875 -4.988281 2.457031 -3.140625 2.4375 -1.265625 C 2.4375 -1.160156 2.445312 -0.992188 2.46875 -0.765625 C 2.5 -0.546875 2.539062 -0.3125 2.59375 -0.0625 C 2.644531 0.1875 2.695312 0.382812 2.75 0.53125 C 2.800781 0.675781 2.863281 0.710938 2.9375 0.640625 C 3.007812 0.566406 3.082031 0.320312 3.15625 -0.09375 C 3.34375 -1.269531 3.554688 -2.597656 3.796875 -4.078125 C 4.328125 -7.554688 4.960938 -11.394531 5.703125 -15.59375 C 6.441406 -19.800781 7.269531 -23.769531 8.1875 -27.5 C 9.113281 -31.238281 10.113281 -34.140625 11.1875 -36.203125 C 11.632812 -36.953125 12.1875 -37.3125 12.84375 -37.28125 C 13.507812 -37.257812 14.046875 -36.851562 14.453125 -36.0625 C 14.992188 -34.800781 15.445312 -33.253906 15.8125 -31.421875 C 16.175781 -29.585938 16.476562 -27.679688 16.71875 -25.703125 C 16.957031 -23.722656 17.164062 -21.867188 17.34375 -20.140625 C 17.4375 -19.191406 17.523438 -18.332031 17.609375 -17.5625 C 17.734375 -16.34375 17.851562 -15.21875 17.96875 -14.1875 C 18.21875 -11.769531 18.445312 -9.882812 18.65625 -8.53125 C 18.875 -7.1875 19.164062 -6.515625 19.53125 -6.515625 C 19.894531 -6.515625 20.394531 -7.351562 21.03125 -9.03125 C 21.664062 -10.707031 22.523438 -13.378906 23.609375 -17.046875 C 24.597656 -20.429688 25.53125 -23.695312 26.40625 -26.84375 C 27.5625 -31 28.757812 -35.128906 30 -39.234375 C 31.238281 -43.335938 32.695312 -47.613281 34.375 -52.0625 C 34.875 -53.34375 35.390625 -54.398438 35.921875 -55.234375 C 36.453125 -56.078125 36.972656 -56.519531 37.484375 -56.5625 C 37.679688 -56.582031 37.875 -56.550781 38.0625 -56.46875 C 38.257812 -56.394531 38.429688 -56.175781 38.578125 -55.8125 C 38.734375 -55.445312 38.820312 -54.835938 38.84375 -53.984375 C 38.882812 -52.554688 38.851562 -51.125 38.75 -49.6875 C 38.65625 -48.25 38.546875 -46.816406 38.421875 -45.390625 C 38.398438 -45.210938 38.390625 -45.050781 38.390625 -44.90625 C 37.679688 -37.550781 36.890625 -30.210938 36.015625 -22.890625 C 35.453125 -18.117188 34.914062 -13.347656 34.40625 -8.578125 C 34.40625 -8.460938 34.394531 -8.335938 34.375 -8.203125 C 33.90625 -3.753906 33.46875 0.695312 33.0625 5.15625 C 32.71875 9.070312 32.40625 12.988281 32.125 16.90625 C 32.101562 17.25 32.082031 17.601562 32.0625 17.96875 C 32 18.976562 31.957031 19.984375 31.9375 20.984375 C 31.9375 21.347656 31.9375 21.703125 31.9375 22.046875 C 31.914062 22.148438 31.925781 22.238281 31.96875 22.3125 C 32.007812 22.394531 32.097656 22.4375 32.234375 22.4375 C 32.265625 22.4375 32.304688 22.421875 32.359375 22.390625 C 32.421875 22.359375 32.457031 22.304688 32.46875 22.234375 C 33.757812 19.578125 35.019531 16.925781 36.25 14.28125 C 37.394531 11.726562 38.570312 9.179688 39.78125 6.640625 C 41 4.097656 42.28125 1.578125 43.625 -0.921875 C 44.738281 -3.023438 45.765625 -4.707031 46.703125 -5.96875 C 47.648438 -7.226562 48.347656 -7.804688 48.796875 -7.703125 Z M 48.796875 -7.703125 "/></g></g></g><g fill="#008080" fill-opacity="1"><g transform="translate(55.8416, 59.457079)"><g><path d="M 16.515625 -7.5 C 16.253906 -6.6875 15.722656 -5.75 14.921875 -4.6875 C 14.128906 -3.632812 13.140625 -2.957031 11.953125 -2.65625 C 10.765625 -2.351562 9.738281 -2.394531 8.875 -2.78125 C 8.007812 -3.164062 7.535156 -4.195312 7.453125 -5.875 C 6.460938 -3.96875 5.519531 -2.742188 4.625 -2.203125 C 3.738281 -1.671875 2.816406 -1.46875 1.859375 -1.59375 C 0.765625 -1.769531 0.0234375 -2.191406 -0.359375 -2.859375 C -0.742188 -3.535156 -0.875 -4.3125 -0.75 -5.1875 C -0.625 -6.070312 -0.351562 -6.914062 0.0625 -7.71875 C 0.382812 -8.320312 0.828125 -8.878906 1.390625 -9.390625 C 1.960938 -9.910156 2.5625 -10.316406 3.1875 -10.609375 C 3.957031 -11.003906 4.726562 -11.191406 5.5 -11.171875 C 6.28125 -11.148438 7.113281 -10.890625 8 -10.390625 C 8.019531 -10.378906 8.03125 -10.398438 8.03125 -10.453125 C 8.03125 -10.546875 8.050781 -10.65625 8.09375 -10.78125 C 8.132812 -10.914062 8.210938 -11.019531 8.328125 -11.09375 C 8.617188 -11.3125 8.960938 -11.421875 9.359375 -11.421875 C 9.753906 -11.421875 10.0625 -11.222656 10.28125 -10.828125 C 10.320312 -10.304688 10.269531 -9.644531 10.125 -8.84375 C 9.800781 -7.09375 9.796875 -5.832031 10.109375 -5.0625 C 10.429688 -4.289062 11 -3.929688 11.8125 -3.984375 C 12.632812 -4.046875 13.691406 -4.851562 14.984375 -6.40625 C 16.273438 -7.957031 16.785156 -8.320312 16.515625 -7.5 Z M 2.140625 -3.390625 C 2.585938 -3.066406 3.101562 -3.109375 3.6875 -3.515625 C 4.269531 -3.921875 4.828125 -4.5 5.359375 -5.25 C 5.890625 -6 6.335938 -6.75 6.703125 -7.5 C 7.066406 -8.25 7.269531 -8.804688 7.3125 -9.171875 C 6.226562 -9.753906 5.296875 -9.851562 4.515625 -9.46875 C 3.734375 -9.082031 3.109375 -8.453125 2.640625 -7.578125 C 2.179688 -6.710938 1.90625 -5.867188 1.8125 -5.046875 C 1.726562 -4.222656 1.835938 -3.671875 2.140625 -3.390625 Z M 2.140625 -3.390625 "/></g></g></g><g fill="#008080" fill-opacity="1"><g transform="translate(71.312479, 59.457079)"><g><path d="M 22.90625 -7.125 C 23 -7.289062 23.132812 -7.378906 23.3125 -7.390625 C 23.488281 -7.398438 23.640625 -7.285156 23.765625 -7.046875 C 23.816406 -6.992188 23.769531 -6.832031 23.625 -6.5625 C 23.488281 -6.289062 23.300781 -5.988281 23.0625 -5.65625 C 22.832031 -5.320312 22.609375 -5.015625 22.390625 -4.734375 C 22.179688 -4.460938 22.035156 -4.28125 21.953125 -4.1875 C 20.984375 -3.113281 20.007812 -2.328125 19.03125 -1.828125 C 18.0625 -1.328125 17.007812 -1.21875 15.875 -1.5 C 14.738281 -1.789062 13.460938 -2.601562 12.046875 -3.9375 C 11.828125 -4.175781 11.613281 -4.410156 11.40625 -4.640625 C 11.34375 -4.710938 11.289062 -4.773438 11.25 -4.828125 C 11.007812 -5.097656 10.75 -5.132812 10.46875 -4.9375 C 10.175781 -4.71875 9.878906 -4.503906 9.578125 -4.296875 C 9.316406 -4.097656 9.050781 -3.914062 8.78125 -3.75 C 7.875 -3.125 6.921875 -2.597656 5.921875 -2.171875 C 4.847656 -1.691406 3.722656 -1.507812 2.546875 -1.625 C 0.703125 -1.832031 -0.253906 -2.847656 -0.328125 -4.671875 C -0.335938 -5.953125 -0.0625 -7.101562 0.5 -8.125 C 1.070312 -9.144531 1.863281 -9.894531 2.875 -10.375 C 3.894531 -10.851562 5.066406 -10.945312 6.390625 -10.65625 C 6.535156 -10.625 6.734375 -10.582031 6.984375 -10.53125 C 7.128906 -10.476562 7.304688 -10.429688 7.515625 -10.390625 C 7.390625 -10.691406 7.273438 -10.960938 7.171875 -11.203125 C 6.972656 -11.585938 6.800781 -11.941406 6.65625 -12.265625 C 5.769531 -14.085938 5.050781 -16.164062 4.5 -18.5 C 3.945312 -20.84375 3.671875 -23.242188 3.671875 -25.703125 C 3.679688 -28.171875 4.09375 -30.46875 4.90625 -32.59375 C 5.726562 -34.71875 7.082031 -36.460938 8.96875 -37.828125 C 10.164062 -38.640625 11.398438 -39.078125 12.671875 -39.140625 C 13.953125 -39.210938 15.15625 -38.9375 16.28125 -38.3125 C 17.414062 -37.695312 18.34375 -36.765625 19.0625 -35.515625 C 19.96875 -33.796875 20.53125 -31.988281 20.75 -30.09375 C 21.132812 -27.03125 21.066406 -24.164062 20.546875 -21.5 C 20.035156 -18.84375 19.128906 -16.332031 17.828125 -13.96875 C 16.523438 -11.601562 14.863281 -9.304688 12.84375 -7.078125 C 12.65625 -6.867188 12.554688 -6.695312 12.546875 -6.5625 C 12.535156 -6.4375 12.628906 -6.257812 12.828125 -6.03125 C 13.234375 -5.5 13.675781 -4.976562 14.15625 -4.46875 C 14.632812 -3.957031 15.171875 -3.535156 15.765625 -3.203125 C 16.609375 -2.835938 17.503906 -2.828125 18.453125 -3.171875 C 19.410156 -3.523438 20.296875 -4.070312 21.109375 -4.8125 C 21.921875 -5.550781 22.519531 -6.320312 22.90625 -7.125 Z M 8.59375 -5.84375 C 8.84375 -6.050781 8.859375 -6.296875 8.640625 -6.578125 C 8.515625 -6.734375 8.390625 -6.890625 8.265625 -7.046875 C 7.910156 -7.484375 7.507812 -7.925781 7.0625 -8.375 C 6.613281 -8.820312 6.148438 -9.160156 5.671875 -9.390625 C 5.191406 -9.628906 4.703125 -9.65625 4.203125 -9.46875 C 3.523438 -9.144531 2.96875 -8.578125 2.53125 -7.765625 C 2.09375 -6.953125 1.832031 -6.113281 1.75 -5.25 C 1.675781 -4.394531 1.84375 -3.742188 2.25 -3.296875 C 2.65625 -2.847656 3.351562 -2.804688 4.34375 -3.171875 C 5.882812 -3.847656 7.300781 -4.738281 8.59375 -5.84375 Z M 11.828125 -9.015625 C 13.878906 -11.429688 15.414062 -13.8125 16.4375 -16.15625 C 17.457031 -18.507812 18.144531 -21.257812 18.5 -24.40625 C 18.601562 -25.164062 18.648438 -26.171875 18.640625 -27.421875 C 18.640625 -28.671875 18.53125 -29.972656 18.3125 -31.328125 C 18.09375 -32.679688 17.707031 -33.914062 17.15625 -35.03125 C 16.601562 -36.15625 15.828125 -36.960938 14.828125 -37.453125 C 13.828125 -37.941406 12.550781 -37.9375 11 -37.4375 C 9.28125 -36.4375 8.003906 -35.101562 7.171875 -33.4375 C 6.347656 -31.78125 5.878906 -29.9375 5.765625 -27.90625 C 5.648438 -25.875 5.785156 -23.796875 6.171875 -21.671875 C 6.554688 -19.546875 7.09375 -17.53125 7.78125 -15.625 C 8.46875 -13.726562 9.203125 -12.070312 9.984375 -10.65625 C 10.078125 -10.476562 10.164062 -10.304688 10.25 -10.140625 C 10.476562 -9.554688 10.816406 -9.035156 11.265625 -8.578125 C 11.335938 -8.628906 11.410156 -8.679688 11.484375 -8.734375 C 11.609375 -8.804688 11.722656 -8.898438 11.828125 -9.015625 Z M 11.828125 -9.015625 "/></g></g></g><g fill="#008080" fill-opacity="1"><g transform="translate(94.080943, 59.457079)"><g><path d="M 16.515625 -7.5 C 16.253906 -6.6875 15.722656 -5.75 14.921875 -4.6875 C 14.128906 -3.632812 13.140625 -2.957031 11.953125 -2.65625 C 10.765625 -2.351562 9.738281 -2.394531 8.875 -2.78125 C 8.007812 -3.164062 7.535156 -4.195312 7.453125 -5.875 C 6.460938 -3.96875 5.519531 -2.742188 4.625 -2.203125 C 3.738281 -1.671875 2.816406 -1.46875 1.859375 -1.59375 C 0.765625 -1.769531 0.0234375 -2.191406 -0.359375 -2.859375 C -0.742188 -3.535156 -0.875 -4.3125 -0.75 -5.1875 C -0.625 -6.070312 -0.351562 -6.914062 0.0625 -7.71875 C 0.382812 -8.320312 0.828125 -8.878906 1.390625 -9.390625 C 1.960938 -9.910156 2.5625 -10.316406 3.1875 -10.609375 C 3.957031 -11.003906 4.726562 -11.191406 5.5 -11.171875 C 6.28125 -11.148438 7.113281 -10.890625 8 -10.390625 C 8.019531 -10.378906 8.03125 -10.398438 8.03125 -10.453125 C 8.03125 -10.546875 8.050781 -10.65625 8.09375 -10.78125 C 8.132812 -10.914062 8.210938 -11.019531 8.328125 -11.09375 C 8.617188 -11.3125 8.960938 -11.421875 9.359375 -11.421875 C 9.753906 -11.421875 10.0625 -11.222656 10.28125 -10.828125 C 10.320312 -10.304688 10.269531 -9.644531 10.125 -8.84375 C 9.800781 -7.09375 9.796875 -5.832031 10.109375 -5.0625 C 10.429688 -4.289062 11 -3.929688 11.8125 -3.984375 C 12.632812 -4.046875 13.691406 -4.851562 14.984375 -6.40625 C 16.273438 -7.957031 16.785156 -8.320312 16.515625 -7.5 Z M 2.140625 -3.390625 C 2.585938 -3.066406 3.101562 -3.109375 3.6875 -3.515625 C 4.269531 -3.921875 4.828125 -4.5 5.359375 -5.25 C 5.890625 -6 6.335938 -6.75 6.703125 -7.5 C 7.066406 -8.25 7.269531 -8.804688 7.3125 -9.171875 C 6.226562 -9.753906 5.296875 -9.851562 4.515625 -9.46875 C 3.734375 -9.082031 3.109375 -8.453125 2.640625 -7.578125 C 2.179688 -6.710938 1.90625 -5.867188 1.8125 -5.046875 C 1.726562 -4.222656 1.835938 -3.671875 2.140625 -3.390625 Z M 2.140625 -3.390625 "/></g></g></g><g fill="#008080" fill-opacity="1"><g transform="translate(109.551822, 59.457079)"><g><path d="M 12.078125 -5.625 C 12.828125 -6.8125 13.269531 -7.566406 13.40625 -7.890625 C 13.550781 -8.210938 13.664062 -8.195312 13.75 -7.84375 C 13.832031 -7.488281 13.585938 -6.695312 13.015625 -5.46875 C 12.453125 -4.238281 11.753906 -3.289062 10.921875 -2.625 C 10.085938 -1.957031 9.304688 -1.707031 8.578125 -1.875 C 7.847656 -2.050781 7.328125 -2.554688 7.015625 -3.390625 C 6.710938 -4.222656 6.625 -5.273438 6.75 -6.546875 C 6.75 -6.566406 6.757812 -6.617188 6.78125 -6.703125 C 6.800781 -6.921875 6.835938 -7.238281 6.890625 -7.65625 C 6.941406 -8.070312 6.976562 -8.503906 7 -8.953125 C 7.019531 -9.398438 7.003906 -9.769531 6.953125 -10.0625 C 6.898438 -10.351562 6.769531 -10.457031 6.5625 -10.375 C 6.039062 -10.082031 5.535156 -9.523438 5.046875 -8.703125 C 4.554688 -7.890625 4.109375 -7.03125 3.703125 -6.125 C 3.304688 -5.226562 3.023438 -4.5 2.859375 -3.9375 C 2.796875 -3.769531 2.734375 -3.585938 2.671875 -3.390625 C 2.585938 -3.140625 2.488281 -2.882812 2.375 -2.625 C 2.09375 -1.894531 1.601562 -1.613281 0.90625 -1.78125 C 0.519531 -1.863281 0.289062 -2.101562 0.21875 -2.5 C 0.195312 -2.800781 0.1875 -3.085938 0.1875 -3.359375 C 0.1875 -3.535156 0.175781 -3.695312 0.15625 -3.84375 C 0.125 -6 0.0703125 -8.175781 0 -10.375 C 0.0195312 -10.625 0.128906 -10.796875 0.328125 -10.890625 C 0.535156 -10.992188 0.78125 -11.046875 1.0625 -11.046875 C 1.28125 -11.046875 1.484375 -10.984375 1.671875 -10.859375 C 1.859375 -10.742188 1.976562 -10.503906 2.03125 -10.140625 C 2.050781 -10.003906 2.0625 -9.875 2.0625 -9.75 C 2.082031 -9.6875 2.09375 -9.625 2.09375 -9.5625 C 2.125 -9.257812 2.140625 -9.003906 2.140625 -8.796875 C 2.140625 -8.472656 2.160156 -8.25 2.203125 -8.125 C 2.253906 -8.007812 2.347656 -8.015625 2.484375 -8.140625 C 2.628906 -8.273438 2.863281 -8.578125 3.1875 -9.046875 C 3.738281 -9.910156 4.425781 -10.640625 5.25 -11.234375 C 5.988281 -11.765625 6.804688 -11.988281 7.703125 -11.90625 C 8.472656 -11.820312 8.992188 -11.414062 9.265625 -10.6875 C 9.367188 -10.320312 9.421875 -9.953125 9.421875 -9.578125 C 9.421875 -9.203125 9.394531 -8.820312 9.34375 -8.4375 C 9.320312 -8.050781 9.296875 -7.65625 9.265625 -7.25 C 9.234375 -7.113281 9.207031 -6.984375 9.1875 -6.859375 C 9.0625 -5.472656 9.101562 -4.539062 9.3125 -4.0625 C 9.53125 -3.59375 9.859375 -3.4375 10.296875 -3.59375 C 10.734375 -3.757812 11.328125 -4.4375 12.078125 -5.625 Z M 12.078125 -5.625 "/></g></g></g><g fill="#008080" fill-opacity="1"><g transform="translate(122.39557, 59.457079)"><g/></g></g><g fill="#008080" fill-opacity="1"><g transform="translate(129.809916, 59.457079)"><g><path d="M 35.625 -42.84375 C 35.882812 -42.800781 36.078125 -42.660156 36.203125 -42.421875 C 36.265625 -42.296875 36.269531 -42.179688 36.21875 -42.078125 C 36.164062 -41.984375 36.097656 -41.882812 36.015625 -41.78125 C 35.222656 -41.0625 34.414062 -40.328125 33.59375 -39.578125 C 32.8125 -38.828125 32.019531 -38.085938 31.21875 -37.359375 C 29.164062 -35.429688 27.113281 -33.503906 25.0625 -31.578125 C 21.03125 -27.828125 17.003906 -24.066406 12.984375 -20.296875 C 10.929688 -18.410156 8.992188 -16.394531 7.171875 -14.25 C 6.523438 -13.5 5.921875 -12.707031 5.359375 -11.875 C 4.984375 -11.320312 4.675781 -10.722656 4.4375 -10.078125 C 4.03125 -9.003906 4.285156 -8.113281 5.203125 -7.40625 C 5.804688 -6.976562 6.4375 -6.601562 7.09375 -6.28125 C 8.082031 -5.789062 9.09375 -5.375 10.125 -5.03125 C 11.15625 -4.6875 12.191406 -4.367188 13.234375 -4.078125 C 16.742188 -3.046875 20.253906 -2.023438 23.765625 -1.015625 C 24.066406 -0.929688 24.367188 -0.847656 24.671875 -0.765625 C 24.734375 -0.742188 24.804688 -0.722656 24.890625 -0.703125 C 25.128906 -0.628906 25.351562 -0.546875 25.5625 -0.453125 C 25.78125 -0.359375 25.976562 -0.210938 26.15625 -0.015625 C 26.257812 0.109375 26.289062 0.25 26.25 0.40625 C 26.207031 0.570312 26.125 0.6875 26 0.75 C 25.550781 0.914062 25.117188 0.90625 24.703125 0.71875 C 24.148438 0.445312 23.570312 0.234375 22.96875 0.078125 C 22.363281 -0.0664062 21.753906 -0.203125 21.140625 -0.328125 C 20.609375 -0.441406 20.070312 -0.578125 19.53125 -0.734375 C 18.695312 -0.941406 17.863281 -1.144531 17.03125 -1.34375 C 14.78125 -1.894531 12.550781 -2.515625 10.34375 -3.203125 C 8.5 -3.753906 6.703125 -4.429688 4.953125 -5.234375 C 4.453125 -5.460938 4.140625 -5.523438 4.015625 -5.421875 C 3.890625 -5.328125 3.828125 -5.003906 3.828125 -4.453125 C 3.804688 -4.128906 3.796875 -3.816406 3.796875 -3.515625 C 3.816406 -3.390625 3.828125 -3.265625 3.828125 -3.140625 C 3.828125 -1.441406 3.828125 0.25 3.828125 1.9375 C 3.828125 6.351562 3.816406 10.753906 3.796875 15.140625 C 3.796875 16.191406 3.753906 17.242188 3.671875 18.296875 C 3.648438 18.785156 3.625 19.285156 3.59375 19.796875 C 3.59375 19.992188 3.5625 20.171875 3.5 20.328125 C 3.4375 20.492188 3.304688 20.617188 3.109375 20.703125 C 2.734375 20.867188 2.40625 20.875 2.125 20.71875 C 1.84375 20.570312 1.679688 20.3125 1.640625 19.9375 C 1.617188 19.59375 1.597656 19.257812 1.578125 18.9375 C 1.472656 17.351562 1.410156 15.757812 1.390625 14.15625 C 1.390625 8.28125 1.390625 2.410156 1.390625 -3.453125 C 1.390625 -5.617188 1.390625 -7.773438 1.390625 -9.921875 C 1.390625 -9.921875 1.398438 -9.921875 1.421875 -9.921875 C 1.421875 -12.078125 1.421875 -14.238281 1.421875 -16.40625 C 1.398438 -22.800781 1.398438 -29.210938 1.421875 -35.640625 C 1.421875 -37.085938 1.460938 -38.515625 1.546875 -39.921875 C 1.566406 -40.515625 1.875 -40.835938 2.46875 -40.890625 C 3.15625 -40.972656 3.546875 -40.679688 3.640625 -40.015625 C 3.742188 -39.148438 3.796875 -38.28125 3.796875 -37.40625 C 3.796875 -33.320312 3.796875 -29.234375 3.796875 -25.140625 C 3.816406 -22.140625 3.828125 -19.15625 3.828125 -16.1875 C 3.828125 -15.625 3.851562 -15.066406 3.90625 -14.515625 C 3.90625 -14.484375 3.925781 -14.457031 3.96875 -14.4375 C 4.019531 -14.414062 4.066406 -14.394531 4.109375 -14.375 C 4.148438 -14.363281 4.179688 -14.367188 4.203125 -14.390625 C 4.273438 -14.390625 4.332031 -14.410156 4.375 -14.453125 C 4.414062 -14.492188 4.457031 -14.535156 4.5 -14.578125 C 5.925781 -16.265625 7.425781 -17.875 9 -19.40625 C 10.582031 -20.9375 12.175781 -22.453125 13.78125 -23.953125 C 13.894531 -24.035156 14.003906 -24.128906 14.109375 -24.234375 C 18.910156 -28.710938 23.726562 -33.171875 28.5625 -37.609375 C 29.632812 -38.597656 30.695312 -39.582031 31.75 -40.5625 C 32.445312 -41.1875 33.148438 -41.796875 33.859375 -42.390625 C 34.378906 -42.796875 34.96875 -42.945312 35.625 -42.84375 Z M 35.625 -42.84375 "/></g></g></g><g fill="#008080" fill-opacity="1"><g transform="translate(157.686688, 59.457079)"><g><path d="M 15.09375 -7.34375 C 15.3125 -7.320312 15.273438 -7.023438 14.984375 -6.453125 C 14.703125 -5.890625 14.234375 -5.238281 13.578125 -4.5 C 12.921875 -3.757812 12.1875 -3.117188 11.375 -2.578125 C 10.5625 -2.046875 9.75 -1.804688 8.9375 -1.859375 C 8.332031 -1.910156 7.882812 -2.085938 7.59375 -2.390625 C 7.3125 -2.691406 7.113281 -3.023438 7 -3.390625 C 6.894531 -3.753906 6.832031 -4.078125 6.8125 -4.359375 C 6.789062 -4.546875 6.765625 -4.6875 6.734375 -4.78125 C 6.703125 -4.882812 6.644531 -4.890625 6.5625 -4.796875 C 5.9375 -3.367188 4.851562 -2.65625 3.3125 -2.65625 C 2.457031 -2.65625 1.757812 -3.035156 1.21875 -3.796875 C 0.6875 -4.554688 0.347656 -5.507812 0.203125 -6.65625 C 0.0664062 -7.800781 0.179688 -8.960938 0.546875 -10.140625 C 0.628906 -10.523438 0.863281 -10.789062 1.25 -10.9375 C 1.53125 -11.039062 1.816406 -11.03125 2.109375 -10.90625 C 2.398438 -10.78125 2.550781 -10.59375 2.5625 -10.34375 C 2.5625 -10.070312 2.546875 -9.8125 2.515625 -9.5625 C 2.460938 -9.363281 2.425781 -9.179688 2.40625 -9.015625 C 2.363281 -8.304688 2.375 -7.535156 2.4375 -6.703125 C 2.507812 -5.867188 2.734375 -5.15625 3.109375 -4.5625 C 3.484375 -4.082031 3.894531 -4.019531 4.34375 -4.375 C 4.789062 -4.726562 5.179688 -5.28125 5.515625 -6.03125 C 5.785156 -6.625 5.992188 -7.210938 6.140625 -7.796875 C 6.285156 -8.390625 6.378906 -8.847656 6.421875 -9.171875 C 6.460938 -9.304688 6.484375 -9.394531 6.484375 -9.4375 C 6.546875 -9.6875 6.613281 -9.929688 6.6875 -10.171875 C 6.789062 -10.535156 6.898438 -10.890625 7.015625 -11.234375 C 7.191406 -11.890625 7.65625 -12.164062 8.40625 -12.0625 C 8.863281 -12.019531 9.113281 -11.796875 9.15625 -11.390625 C 9.195312 -10.835938 9.207031 -10.28125 9.1875 -9.71875 C 9.164062 -9.132812 9.132812 -8.566406 9.09375 -8.015625 C 9.050781 -7.210938 9.019531 -6.410156 9 -5.609375 C 8.976562 -4.453125 9.207031 -3.773438 9.6875 -3.578125 C 10.164062 -3.390625 10.753906 -3.515625 11.453125 -3.953125 C 12.148438 -4.390625 12.820312 -4.984375 13.46875 -5.734375 C 13.519531 -5.804688 13.59375 -5.894531 13.6875 -6 C 13.8125 -6.164062 13.960938 -6.347656 14.140625 -6.546875 C 14.328125 -6.753906 14.503906 -6.929688 14.671875 -7.078125 C 14.847656 -7.234375 14.988281 -7.320312 15.09375 -7.34375 Z M 15.09375 -7.34375 "/></g></g></g><g fill="#008080" fill-opacity="1"><g transform="translate(171.916978, 59.457079)"><g><path d="M 17.890625 -5.390625 C 17.890625 -5.390625 17.890625 -5.398438 17.890625 -5.421875 C 17.972656 -5.503906 18.179688 -5.691406 18.515625 -5.984375 C 18.847656 -6.285156 19.195312 -6.570312 19.5625 -6.84375 C 19.925781 -7.113281 20.1875 -7.253906 20.34375 -7.265625 C 20.507812 -7.273438 20.472656 -7.035156 20.234375 -6.546875 C 20.203125 -6.472656 20.144531 -6.390625 20.0625 -6.296875 C 19.988281 -6.203125 19.921875 -6.113281 19.859375 -6.03125 C 19.828125 -6.007812 19.800781 -5.984375 19.78125 -5.953125 C 18.28125 -4.347656 17.109375 -3.234375 16.265625 -2.609375 C 15.421875 -1.992188 14.582031 -1.707031 13.75 -1.75 C 12.894531 -1.84375 12.316406 -2.175781 12.015625 -2.75 C 11.710938 -3.332031 11.566406 -4.039062 11.578125 -4.875 C 11.585938 -5.707031 11.65625 -6.550781 11.78125 -7.40625 C 11.914062 -8.289062 11.972656 -9.046875 11.953125 -9.671875 C 11.929688 -10.296875 11.710938 -10.664062 11.296875 -10.78125 C 10.921875 -10.8125 10.53125 -10.492188 10.125 -9.828125 C 9.726562 -9.171875 9.347656 -8.410156 8.984375 -7.546875 C 8.628906 -6.679688 8.332031 -5.914062 8.09375 -5.25 C 7.96875 -4.894531 7.875 -4.640625 7.8125 -4.484375 C 7.632812 -4.140625 7.382812 -3.914062 7.0625 -3.8125 C 6.738281 -3.707031 6.398438 -3.726562 6.046875 -3.875 C 5.828125 -4.007812 5.695312 -4.191406 5.65625 -4.421875 C 5.59375 -4.941406 5.570312 -5.476562 5.59375 -6.03125 C 5.613281 -6.394531 5.613281 -6.742188 5.59375 -7.078125 C 5.59375 -7.171875 5.59375 -7.28125 5.59375 -7.40625 C 5.59375 -7.582031 5.59375 -7.753906 5.59375 -7.921875 C 5.59375 -8.085938 5.570312 -8.238281 5.53125 -8.375 C 5.5 -8.507812 5.429688 -8.578125 5.328125 -8.578125 C 5.160156 -8.585938 4.957031 -8.382812 4.71875 -7.96875 C 4.476562 -7.550781 4.238281 -7.050781 4 -6.46875 C 3.757812 -5.894531 3.539062 -5.375 3.34375 -4.90625 C 3.164062 -4.5 3.050781 -4.222656 3 -4.078125 C 2.96875 -4.003906 2.929688 -3.9375 2.890625 -3.875 C 2.691406 -3.488281 2.5 -3.101562 2.3125 -2.71875 C 2.144531 -2.394531 1.863281 -2.203125 1.46875 -2.140625 C 0.6875 -2.003906 0.257812 -2.328125 0.1875 -3.109375 C 0.132812 -5.097656 0.0820312 -7.085938 0.03125 -9.078125 C 0.03125 -9.597656 0.347656 -9.78125 0.984375 -9.625 C 1.628906 -9.476562 1.988281 -9.144531 2.0625 -8.625 C 2.113281 -7.789062 2.207031 -7.367188 2.34375 -7.359375 C 2.476562 -7.347656 2.75 -7.71875 3.15625 -8.46875 C 3.363281 -8.832031 3.585938 -9.195312 3.828125 -9.5625 C 4.097656 -10.050781 4.472656 -10.476562 4.953125 -10.84375 C 5.441406 -11.164062 5.910156 -11.257812 6.359375 -11.125 C 6.804688 -11 7.160156 -10.660156 7.421875 -10.109375 C 7.523438 -9.867188 7.628906 -9.738281 7.734375 -9.71875 C 7.847656 -9.707031 7.957031 -9.757812 8.0625 -9.875 C 8.164062 -9.988281 8.269531 -10.128906 8.375 -10.296875 C 8.46875 -10.472656 8.566406 -10.625 8.671875 -10.75 C 9.273438 -11.40625 9.992188 -11.863281 10.828125 -12.125 C 11.660156 -12.382812 12.414062 -12.375 13.09375 -12.09375 C 13.769531 -11.820312 14.160156 -11.210938 14.265625 -10.265625 C 14.304688 -9.140625 14.226562 -7.988281 14.03125 -6.8125 C 13.957031 -6.238281 13.894531 -5.703125 13.84375 -5.203125 C 13.800781 -4.097656 14 -3.492188 14.4375 -3.390625 C 14.875 -3.285156 15.410156 -3.457031 16.046875 -3.90625 C 16.679688 -4.351562 17.296875 -4.847656 17.890625 -5.390625 Z M 17.890625 -5.390625 "/></g></g></g><g fill="#008080" fill-opacity="1"><g transform="translate(191.051244, 59.457079)"><g><path d="M 16.515625 -7.5 C 16.253906 -6.6875 15.722656 -5.75 14.921875 -4.6875 C 14.128906 -3.632812 13.140625 -2.957031 11.953125 -2.65625 C 10.765625 -2.351562 9.738281 -2.394531 8.875 -2.78125 C 8.007812 -3.164062 7.535156 -4.195312 7.453125 -5.875 C 6.460938 -3.96875 5.519531 -2.742188 4.625 -2.203125 C 3.738281 -1.671875 2.816406 -1.46875 1.859375 -1.59375 C 0.765625 -1.769531 0.0234375 -2.191406 -0.359375 -2.859375 C -0.742188 -3.535156 -0.875 -4.3125 -0.75 -5.1875 C -0.625 -6.070312 -0.351562 -6.914062 0.0625 -7.71875 C 0.382812 -8.320312 0.828125 -8.878906 1.390625 -9.390625 C 1.960938 -9.910156 2.5625 -10.316406 3.1875 -10.609375 C 3.957031 -11.003906 4.726562 -11.191406 5.5 -11.171875 C 6.28125 -11.148438 7.113281 -10.890625 8 -10.390625 C 8.019531 -10.378906 8.03125 -10.398438 8.03125 -10.453125 C 8.03125 -10.546875 8.050781 -10.65625 8.09375 -10.78125 C 8.132812 -10.914062 8.210938 -11.019531 8.328125 -11.09375 C 8.617188 -11.3125 8.960938 -11.421875 9.359375 -11.421875 C 9.753906 -11.421875 10.0625 -11.222656 10.28125 -10.828125 C 10.320312 -10.304688 10.269531 -9.644531 10.125 -8.84375 C 9.800781 -7.09375 9.796875 -5.832031 10.109375 -5.0625 C 10.429688 -4.289062 11 -3.929688 11.8125 -3.984375 C 12.632812 -4.046875 13.691406 -4.851562 14.984375 -6.40625 C 16.273438 -7.957031 16.785156 -8.320312 16.515625 -7.5 Z M 2.140625 -3.390625 C 2.585938 -3.066406 3.101562 -3.109375 3.6875 -3.515625 C 4.269531 -3.921875 4.828125 -4.5 5.359375 -5.25 C 5.890625 -6 6.335938 -6.75 6.703125 -7.5 C 7.066406 -8.25 7.269531 -8.804688 7.3125 -9.171875 C 6.226562 -9.753906 5.296875 -9.851562 4.515625 -9.46875 C 3.734375 -9.082031 3.109375 -8.453125 2.640625 -7.578125 C 2.179688 -6.710938 1.90625 -5.867188 1.8125 -5.046875 C 1.726562 -4.222656 1.835938 -3.671875 2.140625 -3.390625 Z M 2.140625 -3.390625 "/></g></g></g><g fill="#008080" fill-opacity="1"><g transform="translate(206.522123, 59.457079)"><g><path d="M 9.3125 -7 C 9.5 -7.375 9.625 -7.546875 9.6875 -7.515625 C 9.757812 -7.492188 9.78125 -7.34375 9.75 -7.0625 C 9.71875 -6.78125 9.65625 -6.46875 9.5625 -6.125 C 9.4375 -5.582031 9.21875 -4.957031 8.90625 -4.25 C 8.59375 -3.550781 8.25 -2.914062 7.875 -2.34375 C 7.3125 -1.539062 6.613281 -0.9375 5.78125 -0.53125 C 4.945312 -0.125 4.191406 -0.0234375 3.515625 -0.234375 C 2.835938 -0.441406 2.445312 -1.078125 2.34375 -2.140625 C 2.320312 -3.035156 2.394531 -4.019531 2.5625 -5.09375 C 2.625 -5.539062 2.691406 -5.976562 2.765625 -6.40625 C 2.765625 -6.5625 2.722656 -6.679688 2.640625 -6.765625 C 2.566406 -6.847656 2.46875 -6.878906 2.34375 -6.859375 C 2.25 -6.859375 2.148438 -6.859375 2.046875 -6.859375 C 1.503906 -6.773438 0.957031 -6.785156 0.40625 -6.890625 C -0.25 -7.085938 -0.628906 -7.414062 -0.734375 -7.875 C -0.847656 -8.34375 -0.84375 -8.953125 -0.71875 -9.703125 C -0.644531 -10.234375 -0.441406 -10.628906 -0.109375 -10.890625 C 0.210938 -11.160156 0.597656 -11.273438 1.046875 -11.234375 C 1.671875 -11.171875 1.972656 -10.929688 1.953125 -10.515625 C 1.929688 -10.097656 1.816406 -9.648438 1.609375 -9.171875 C 1.410156 -8.773438 1.304688 -8.441406 1.296875 -8.171875 C 1.285156 -7.898438 1.515625 -7.804688 1.984375 -7.890625 C 2.085938 -7.910156 2.207031 -7.941406 2.34375 -7.984375 C 2.507812 -8.054688 2.703125 -8.117188 2.921875 -8.171875 C 3.148438 -8.222656 3.445312 -8.234375 3.8125 -8.203125 C 4.238281 -8.179688 4.519531 -7.984375 4.65625 -7.609375 C 4.800781 -7.234375 4.863281 -6.765625 4.84375 -6.203125 C 4.820312 -5.640625 4.769531 -5.066406 4.6875 -4.484375 C 4.582031 -3.753906 4.53125 -3.128906 4.53125 -2.609375 C 4.53125 -2.085938 4.679688 -1.78125 4.984375 -1.6875 C 5.378906 -1.582031 5.972656 -1.945312 6.765625 -2.78125 C 7.554688 -3.613281 8.40625 -5.019531 9.3125 -7 Z M 9.3125 -7 "/></g></g></g><g fill="#008080" fill-opacity="1"><g transform="translate(215.454367, 59.457079)"><g/></g></g><g fill="#008080" fill-opacity="1"><g transform="translate(222.868712, 59.457079)"><g><path d="M 56.765625 -41.453125 C 58.179688 -40.304688 59.335938 -38.992188 60.234375 -37.515625 C 61.128906 -36.035156 61.726562 -34.375 62.03125 -32.53125 C 62.1875 -31.59375 62.21875 -30.660156 62.125 -29.734375 C 62.039062 -28.816406 61.882812 -27.90625 61.65625 -27 C 61.28125 -25.5 60.742188 -24.070312 60.046875 -22.71875 C 59.359375 -21.375 58.546875 -20.09375 57.609375 -18.875 C 56.359375 -17.289062 54.96875 -15.878906 53.4375 -14.640625 C 51.90625 -13.398438 50.273438 -12.273438 48.546875 -11.265625 C 44.878906 -9.117188 41.03125 -7.375 37 -6.03125 C 36.726562 -5.925781 36.441406 -5.816406 36.140625 -5.703125 C 35.734375 -5.578125 35.441406 -5.46875 35.265625 -5.375 C 35.097656 -5.28125 34.992188 -5.132812 34.953125 -4.9375 C 34.910156 -4.738281 34.890625 -4.4375 34.890625 -4.03125 C 34.890625 1.039062 34.878906 6.101562 34.859375 11.15625 C 34.859375 11.820312 34.859375 12.472656 34.859375 13.109375 C 34.859375 13.160156 34.859375 13.195312 34.859375 13.21875 C 34.859375 13.570312 34.851562 13.925781 34.84375 14.28125 C 34.832031 14.644531 34.773438 14.992188 34.671875 15.328125 C 34.515625 15.910156 34.15625 16.191406 33.59375 16.171875 C 33.113281 16.148438 32.796875 15.90625 32.640625 15.4375 C 32.441406 14.664062 32.359375 13.875 32.390625 13.0625 C 32.390625 12.289062 32.390625 11.519531 32.390625 10.75 C 32.390625 6.414062 32.390625 2.085938 32.390625 -2.234375 C 32.390625 -2.390625 32.390625 -2.550781 32.390625 -2.71875 C 32.441406 -3.226562 32.390625 -3.785156 32.234375 -4.390625 C 31.929688 -4.367188 31.660156 -4.316406 31.421875 -4.234375 C 31.035156 -4.128906 30.660156 -4.101562 30.296875 -4.15625 C 30.160156 -4.175781 30.039062 -4.210938 29.9375 -4.265625 C 29.832031 -4.328125 29.769531 -4.429688 29.75 -4.578125 C 29.75 -4.878906 29.878906 -5.070312 30.140625 -5.15625 C 30.648438 -5.363281 31.171875 -5.546875 31.703125 -5.703125 C 32.179688 -5.867188 32.410156 -6.203125 32.390625 -6.703125 C 32.390625 -7.003906 32.390625 -7.316406 32.390625 -7.640625 C 32.390625 -7.804688 32.390625 -7.984375 32.390625 -8.171875 C 32.390625 -10.765625 32.390625 -13.347656 32.390625 -15.921875 C 32.410156 -21.660156 32.421875 -27.410156 32.421875 -33.171875 C 32.421875 -33.234375 32.421875 -33.304688 32.421875 -33.390625 C 32.421875 -33.816406 32.429688 -34.238281 32.453125 -34.65625 C 32.515625 -35.40625 32.921875 -35.78125 33.671875 -35.78125 C 34.390625 -35.757812 34.785156 -35.375 34.859375 -34.625 C 34.878906 -34.25 34.878906 -33.882812 34.859375 -33.53125 C 34.859375 -33.40625 34.859375 -33.273438 34.859375 -33.140625 C 34.859375 -31.347656 34.859375 -29.5625 34.859375 -27.78125 C 34.878906 -21.539062 34.890625 -15.304688 34.890625 -9.078125 C 34.890625 -8.921875 34.890625 -8.757812 34.890625 -8.59375 C 34.847656 -8.082031 34.890625 -7.578125 35.015625 -7.078125 C 35.140625 -6.972656 35.257812 -6.929688 35.375 -6.953125 C 35.5 -6.984375 35.613281 -7.015625 35.71875 -7.046875 C 38.71875 -8.171875 41.59375 -9.5 44.34375 -11.03125 C 47.101562 -12.570312 49.679688 -14.394531 52.078125 -16.5 C 55.179688 -19.21875 57.375 -22.554688 58.65625 -26.515625 C 59.320312 -28.703125 59.507812 -30.734375 59.21875 -32.609375 C 58.9375 -34.484375 58.273438 -36.164062 57.234375 -37.65625 C 56.203125 -39.144531 54.890625 -40.410156 53.296875 -41.453125 C 50.554688 -43.253906 47.296875 -44.367188 43.515625 -44.796875 C 39.734375 -45.222656 35.769531 -45.082031 31.625 -44.375 C 27.476562 -43.675781 23.476562 -42.53125 19.625 -40.9375 C 15.769531 -39.351562 12.390625 -37.445312 9.484375 -35.21875 C 6.585938 -33 4.488281 -30.597656 3.1875 -28.015625 C 2.882812 -27.492188 2.664062 -26.953125 2.53125 -26.390625 C 2.40625 -25.828125 2.414062 -25.242188 2.5625 -24.640625 C 2.65625 -24.285156 2.609375 -24.019531 2.421875 -23.84375 C 2.234375 -23.675781 1.972656 -23.617188 1.640625 -23.671875 C 0.953125 -23.773438 0.476562 -24.132812 0.21875 -24.75 C 0 -25.28125 -0.0351562 -25.832031 0.109375 -26.40625 C 0.335938 -27.507812 0.773438 -28.523438 1.421875 -29.453125 C 3.492188 -32.472656 6.375 -35.15625 10.0625 -37.5 C 13.757812 -39.84375 17.859375 -41.765625 22.359375 -43.265625 C 26.859375 -44.765625 31.351562 -45.734375 35.84375 -46.171875 C 40.34375 -46.609375 44.425781 -46.421875 48.09375 -45.609375 C 49.695312 -45.242188 51.21875 -44.722656 52.65625 -44.046875 C 54.101562 -43.367188 55.472656 -42.503906 56.765625 -41.453125 Z M 56.765625 -41.453125 "/></g></g></g><g fill="#008080" fill-opacity="1"><g transform="translate(277.13355, 59.457079)"><g><path d="M 16.515625 -7.5 C 16.253906 -6.6875 15.722656 -5.75 14.921875 -4.6875 C 14.128906 -3.632812 13.140625 -2.957031 11.953125 -2.65625 C 10.765625 -2.351562 9.738281 -2.394531 8.875 -2.78125 C 8.007812 -3.164062 7.535156 -4.195312 7.453125 -5.875 C 6.460938 -3.96875 5.519531 -2.742188 4.625 -2.203125 C 3.738281 -1.671875 2.816406 -1.46875 1.859375 -1.59375 C 0.765625 -1.769531 0.0234375 -2.191406 -0.359375 -2.859375 C -0.742188 -3.535156 -0.875 -4.3125 -0.75 -5.1875 C -0.625 -6.070312 -0.351562 -6.914062 0.0625 -7.71875 C 0.382812 -8.320312 0.828125 -8.878906 1.390625 -9.390625 C 1.960938 -9.910156 2.5625 -10.316406 3.1875 -10.609375 C 3.957031 -11.003906 4.726562 -11.191406 5.5 -11.171875 C 6.28125 -11.148438 7.113281 -10.890625 8 -10.390625 C 8.019531 -10.378906 8.03125 -10.398438 8.03125 -10.453125 C 8.03125 -10.546875 8.050781 -10.65625 8.09375 -10.78125 C 8.132812 -10.914062 8.210938 -11.019531 8.328125 -11.09375 C 8.617188 -11.3125 8.960938 -11.421875 9.359375 -11.421875 C 9.753906 -11.421875 10.0625 -11.222656 10.28125 -10.828125 C 10.320312 -10.304688 10.269531 -9.644531 10.125 -8.84375 C 9.800781 -7.09375 9.796875 -5.832031 10.109375 -5.0625 C 10.429688 -4.289062 11 -3.929688 11.8125 -3.984375 C 12.632812 -4.046875 13.691406 -4.851562 14.984375 -6.40625 C 16.273438 -7.957031 16.785156 -8.320312 16.515625 -7.5 Z M 2.140625 -3.390625 C 2.585938 -3.066406 3.101562 -3.109375 3.6875 -3.515625 C 4.269531 -3.921875 4.828125 -4.5 5.359375 -5.25 C 5.890625 -6 6.335938 -6.75 6.703125 -7.5 C 7.066406 -8.25 7.269531 -8.804688 7.3125 -9.171875 C 6.226562 -9.753906 5.296875 -9.851562 4.515625 -9.46875 C 3.734375 -9.082031 3.109375 -8.453125 2.640625 -7.578125 C 2.179688 -6.710938 1.90625 -5.867188 1.8125 -5.046875 C 1.726562 -4.222656 1.835938 -3.671875 2.140625 -3.390625 Z M 2.140625 -3.390625 "/></g></g></g><g fill="#008080" fill-opacity="1"><g transform="translate(292.604429, 59.457079)"><g><path d="M 15.09375 -7.34375 C 15.3125 -7.320312 15.273438 -7.023438 14.984375 -6.453125 C 14.703125 -5.890625 14.234375 -5.238281 13.578125 -4.5 C 12.921875 -3.757812 12.1875 -3.117188 11.375 -2.578125 C 10.5625 -2.046875 9.75 -1.804688 8.9375 -1.859375 C 8.332031 -1.910156 7.882812 -2.085938 7.59375 -2.390625 C 7.3125 -2.691406 7.113281 -3.023438 7 -3.390625 C 6.894531 -3.753906 6.832031 -4.078125 6.8125 -4.359375 C 6.789062 -4.546875 6.765625 -4.6875 6.734375 -4.78125 C 6.703125 -4.882812 6.644531 -4.890625 6.5625 -4.796875 C 5.9375 -3.367188 4.851562 -2.65625 3.3125 -2.65625 C 2.457031 -2.65625 1.757812 -3.035156 1.21875 -3.796875 C 0.6875 -4.554688 0.347656 -5.507812 0.203125 -6.65625 C 0.0664062 -7.800781 0.179688 -8.960938 0.546875 -10.140625 C 0.628906 -10.523438 0.863281 -10.789062 1.25 -10.9375 C 1.53125 -11.039062 1.816406 -11.03125 2.109375 -10.90625 C 2.398438 -10.78125 2.550781 -10.59375 2.5625 -10.34375 C 2.5625 -10.070312 2.546875 -9.8125 2.515625 -9.5625 C 2.460938 -9.363281 2.425781 -9.179688 2.40625 -9.015625 C 2.363281 -8.304688 2.375 -7.535156 2.4375 -6.703125 C 2.507812 -5.867188 2.734375 -5.15625 3.109375 -4.5625 C 3.484375 -4.082031 3.894531 -4.019531 4.34375 -4.375 C 4.789062 -4.726562 5.179688 -5.28125 5.515625 -6.03125 C 5.785156 -6.625 5.992188 -7.210938 6.140625 -7.796875 C 6.285156 -8.390625 6.378906 -8.847656 6.421875 -9.171875 C 6.460938 -9.304688 6.484375 -9.394531 6.484375 -9.4375 C 6.546875 -9.6875 6.613281 -9.929688 6.6875 -10.171875 C 6.789062 -10.535156 6.898438 -10.890625 7.015625 -11.234375 C 7.191406 -11.890625 7.65625 -12.164062 8.40625 -12.0625 C 8.863281 -12.019531 9.113281 -11.796875 9.15625 -11.390625 C 9.195312 -10.835938 9.207031 -10.28125 9.1875 -9.71875 C 9.164062 -9.132812 9.132812 -8.566406 9.09375 -8.015625 C 9.050781 -7.210938 9.019531 -6.410156 9 -5.609375 C 8.976562 -4.453125 9.207031 -3.773438 9.6875 -3.578125 C 10.164062 -3.390625 10.753906 -3.515625 11.453125 -3.953125 C 12.148438 -4.390625 12.820312 -4.984375 13.46875 -5.734375 C 13.519531 -5.804688 13.59375 -5.894531 13.6875 -6 C 13.8125 -6.164062 13.960938 -6.347656 14.140625 -6.546875 C 14.328125 -6.753906 14.503906 -6.929688 14.671875 -7.078125 C 14.847656 -7.234375 14.988281 -7.320312 15.09375 -7.34375 Z M 15.09375 -7.34375 "/></g></g></g><g fill="#008080" fill-opacity="1"><g transform="translate(306.834719, 59.457079)"><g><path d="M 22.90625 -7.125 C 23 -7.289062 23.132812 -7.378906 23.3125 -7.390625 C 23.488281 -7.398438 23.640625 -7.285156 23.765625 -7.046875 C 23.816406 -6.992188 23.769531 -6.832031 23.625 -6.5625 C 23.488281 -6.289062 23.300781 -5.988281 23.0625 -5.65625 C 22.832031 -5.320312 22.609375 -5.015625 22.390625 -4.734375 C 22.179688 -4.460938 22.035156 -4.28125 21.953125 -4.1875 C 20.984375 -3.113281 20.007812 -2.328125 19.03125 -1.828125 C 18.0625 -1.328125 17.007812 -1.21875 15.875 -1.5 C 14.738281 -1.789062 13.460938 -2.601562 12.046875 -3.9375 C 11.828125 -4.175781 11.613281 -4.410156 11.40625 -4.640625 C 11.34375 -4.710938 11.289062 -4.773438 11.25 -4.828125 C 11.007812 -5.097656 10.75 -5.132812 10.46875 -4.9375 C 10.175781 -4.71875 9.878906 -4.503906 9.578125 -4.296875 C 9.316406 -4.097656 9.050781 -3.914062 8.78125 -3.75 C 7.875 -3.125 6.921875 -2.597656 5.921875 -2.171875 C 4.847656 -1.691406 3.722656 -1.507812 2.546875 -1.625 C 0.703125 -1.832031 -0.253906 -2.847656 -0.328125 -4.671875 C -0.335938 -5.953125 -0.0625 -7.101562 0.5 -8.125 C 1.070312 -9.144531 1.863281 -9.894531 2.875 -10.375 C 3.894531 -10.851562 5.066406 -10.945312 6.390625 -10.65625 C 6.535156 -10.625 6.734375 -10.582031 6.984375 -10.53125 C 7.128906 -10.476562 7.304688 -10.429688 7.515625 -10.390625 C 7.390625 -10.691406 7.273438 -10.960938 7.171875 -11.203125 C 6.972656 -11.585938 6.800781 -11.941406 6.65625 -12.265625 C 5.769531 -14.085938 5.050781 -16.164062 4.5 -18.5 C 3.945312 -20.84375 3.671875 -23.242188 3.671875 -25.703125 C 3.679688 -28.171875 4.09375 -30.46875 4.90625 -32.59375 C 5.726562 -34.71875 7.082031 -36.460938 8.96875 -37.828125 C 10.164062 -38.640625 11.398438 -39.078125 12.671875 -39.140625 C 13.953125 -39.210938 15.15625 -38.9375 16.28125 -38.3125 C 17.414062 -37.695312 18.34375 -36.765625 19.0625 -35.515625 C 19.96875 -33.796875 20.53125 -31.988281 20.75 -30.09375 C 21.132812 -27.03125 21.066406 -24.164062 20.546875 -21.5 C 20.035156 -18.84375 19.128906 -16.332031 17.828125 -13.96875 C 16.523438 -11.601562 14.863281 -9.304688 12.84375 -7.078125 C 12.65625 -6.867188 12.554688 -6.695312 12.546875 -6.5625 C 12.535156 -6.4375 12.628906 -6.257812 12.828125 -6.03125 C 13.234375 -5.5 13.675781 -4.976562 14.15625 -4.46875 C 14.632812 -3.957031 15.171875 -3.535156 15.765625 -3.203125 C 16.609375 -2.835938 17.503906 -2.828125 18.453125 -3.171875 C 19.410156 -3.523438 20.296875 -4.070312 21.109375 -4.8125 C 21.921875 -5.550781 22.519531 -6.320312 22.90625 -7.125 Z M 8.59375 -5.84375 C 8.84375 -6.050781 8.859375 -6.296875 8.640625 -6.578125 C 8.515625 -6.734375 8.390625 -6.890625 8.265625 -7.046875 C 7.910156 -7.484375 7.507812 -7.925781 7.0625 -8.375 C 6.613281 -8.820312 6.148438 -9.160156 5.671875 -9.390625 C 5.191406 -9.628906 4.703125 -9.65625 4.203125 -9.46875 C 3.523438 -9.144531 2.96875 -8.578125 2.53125 -7.765625 C 2.09375 -6.953125 1.832031 -6.113281 1.75 -5.25 C 1.675781 -4.394531 1.84375 -3.742188 2.25 -3.296875 C 2.65625 -2.847656 3.351562 -2.804688 4.34375 -3.171875 C 5.882812 -3.847656 7.300781 -4.738281 8.59375 -5.84375 Z M 11.828125 -9.015625 C 13.878906 -11.429688 15.414062 -13.8125 16.4375 -16.15625 C 17.457031 -18.507812 18.144531 -21.257812 18.5 -24.40625 C 18.601562 -25.164062 18.648438 -26.171875 18.640625 -27.421875 C 18.640625 -28.671875 18.53125 -29.972656 18.3125 -31.328125 C 18.09375 -32.679688 17.707031 -33.914062 17.15625 -35.03125 C 16.601562 -36.15625 15.828125 -36.960938 14.828125 -37.453125 C 13.828125 -37.941406 12.550781 -37.9375 11 -37.4375 C 9.28125 -36.4375 8.003906 -35.101562 7.171875 -33.4375 C 6.347656 -31.78125 5.878906 -29.9375 5.765625 -27.90625 C 5.648438 -25.875 5.785156 -23.796875 6.171875 -21.671875 C 6.554688 -19.546875 7.09375 -17.53125 7.78125 -15.625 C 8.46875 -13.726562 9.203125 -12.070312 9.984375 -10.65625 C 10.078125 -10.476562 10.164062 -10.304688 10.25 -10.140625 C 10.476562 -9.554688 10.816406 -9.035156 11.265625 -8.578125 C 11.335938 -8.628906 11.410156 -8.679688 11.484375 -8.734375 C 11.609375 -8.804688 11.722656 -8.898438 11.828125 -9.015625 Z M 11.828125 -9.015625 "/></g></g></g><g fill="#008080" fill-opacity="1"><g transform="translate(329.603182, 59.457079)"><g><path d="M 14.078125 -7.046875 C 14.285156 -7.179688 14.492188 -7.28125 14.703125 -7.34375 C 14.910156 -7.414062 15.046875 -7.410156 15.109375 -7.328125 C 15.171875 -7.253906 15.082031 -7.082031 14.84375 -6.8125 C 14.113281 -5.96875 13.238281 -5.195312 12.21875 -4.5 C 11.207031 -3.800781 10.164062 -3.21875 9.09375 -2.75 C 8.257812 -2.363281 7.375 -2.054688 6.4375 -1.828125 C 5.507812 -1.609375 4.59375 -1.5625 3.6875 -1.6875 C 2.78125 -1.820312 1.953125 -2.226562 1.203125 -2.90625 C 0.0546875 -3.957031 -0.414062 -5.242188 -0.21875 -6.765625 C -0.0507812 -7.972656 0.414062 -8.992188 1.1875 -9.828125 C 1.957031 -10.671875 2.9375 -11.242188 4.125 -11.546875 C 5.101562 -11.765625 6.082031 -11.789062 7.0625 -11.625 C 7.507812 -11.550781 7.921875 -11.398438 8.296875 -11.171875 C 8.640625 -10.910156 8.828125 -10.601562 8.859375 -10.25 C 8.890625 -9.894531 8.753906 -9.5625 8.453125 -9.25 C 7.828125 -8.6875 7.109375 -8.351562 6.296875 -8.25 C 5.378906 -8.09375 4.457031 -7.992188 3.53125 -7.953125 C 3.082031 -7.953125 2.769531 -7.859375 2.59375 -7.671875 C 2.414062 -7.492188 2.3125 -7.179688 2.28125 -6.734375 C 2.132812 -5.515625 2.523438 -4.519531 3.453125 -3.75 C 4.023438 -3.289062 4.722656 -3.09375 5.546875 -3.15625 C 6.367188 -3.226562 7.238281 -3.453125 8.15625 -3.828125 C 9.082031 -4.203125 9.988281 -4.640625 10.875 -5.140625 C 11.757812 -5.648438 12.5625 -6.128906 13.28125 -6.578125 C 13.570312 -6.765625 13.835938 -6.921875 14.078125 -7.046875 Z M 3.921875 -9.65625 C 3.921875 -9.632812 3.910156 -9.625 3.890625 -9.625 C 3.847656 -9.582031 3.796875 -9.535156 3.734375 -9.484375 C 3.671875 -9.429688 3.609375 -9.378906 3.546875 -9.328125 C 3.492188 -9.273438 3.46875 -9.238281 3.46875 -9.21875 C 3.488281 -9.144531 3.664062 -9.125 4 -9.15625 C 4.332031 -9.195312 4.695312 -9.257812 5.09375 -9.34375 C 5.488281 -9.425781 5.820312 -9.535156 6.09375 -9.671875 C 6.363281 -9.816406 6.445312 -9.984375 6.34375 -10.171875 C 6.289062 -10.234375 6.226562 -10.285156 6.15625 -10.328125 C 6.082031 -10.367188 6.003906 -10.398438 5.921875 -10.421875 C 5.523438 -10.421875 5.164062 -10.34375 4.84375 -10.1875 C 4.519531 -10.039062 4.210938 -9.863281 3.921875 -9.65625 Z M 3.921875 -9.65625 "/></g></g></g><g fill="#008080" fill-opacity="1"><g transform="translate(343.731306, 59.457079)"><g><path d="M 10.546875 -6.8125 C 10.710938 -7.207031 10.890625 -7.40625 11.078125 -7.40625 C 11.273438 -7.40625 11.335938 -7.207031 11.265625 -6.8125 C 10.953125 -5.8125 10.570312 -4.851562 10.125 -3.9375 C 9.675781 -3.03125 9.066406 -2.21875 8.296875 -1.5 C 7.710938 -0.914062 7.015625 -0.539062 6.203125 -0.375 C 5.109375 -0.21875 4.203125 -0.347656 3.484375 -0.765625 C 2.765625 -1.191406 2.195312 -1.796875 1.78125 -2.578125 C 1.363281 -3.359375 1.050781 -4.210938 0.84375 -5.140625 C 0.644531 -6.078125 0.515625 -6.984375 0.453125 -7.859375 C 0.296875 -9.515625 0.179688 -11.6875 0.109375 -14.375 C 0.0351562 -17.070312 0.0625 -19.925781 0.1875 -22.9375 C 0.3125 -25.945312 0.601562 -28.734375 1.0625 -31.296875 C 1.53125 -33.867188 2.210938 -35.863281 3.109375 -37.28125 C 3.628906 -37.96875 4.226562 -38.316406 4.90625 -38.328125 C 5.59375 -38.335938 6.207031 -38.023438 6.75 -37.390625 C 7.101562 -36.890625 7.375 -36.359375 7.5625 -35.796875 C 7.75 -35.242188 7.867188 -34.679688 7.921875 -34.109375 C 8.117188 -32.128906 8.09375 -30.039062 7.84375 -27.84375 C 7.601562 -25.65625 7.222656 -23.3125 6.703125 -20.8125 C 6.179688 -18.320312 5.550781 -16.128906 4.8125 -14.234375 C 4.082031 -12.335938 3.476562 -10.832031 3 -9.71875 C 2.726562 -9.269531 2.628906 -8.597656 2.703125 -7.703125 C 2.785156 -6.710938 2.96875 -5.679688 3.25 -4.609375 C 3.539062 -3.546875 3.945312 -2.703125 4.46875 -2.078125 C 4.957031 -1.554688 5.503906 -1.394531 6.109375 -1.59375 C 6.710938 -1.789062 7.3125 -2.195312 7.90625 -2.8125 C 8.507812 -3.4375 9.035156 -4.113281 9.484375 -4.84375 C 9.941406 -5.582031 10.296875 -6.238281 10.546875 -6.8125 Z M 2.765625 -21.75 C 2.703125 -21.101562 2.644531 -20.128906 2.59375 -18.828125 C 2.539062 -17.523438 2.488281 -16.203125 2.4375 -14.859375 C 2.394531 -13.359375 2.351562 -12.191406 2.3125 -11.359375 C 2.78125 -12.429688 3.332031 -13.988281 3.96875 -16.03125 C 4.601562 -18.070312 5.179688 -20.476562 5.703125 -23.25 C 6.222656 -26.03125 6.5625 -29.035156 6.71875 -32.265625 C 6.625 -34.160156 6.394531 -35.441406 6.03125 -36.109375 C 5.664062 -36.785156 5.269531 -36.84375 4.84375 -36.28125 C 4.414062 -35.726562 4.078125 -34.5625 3.828125 -32.78125 C 3.429688 -29.832031 3.128906 -26.878906 2.921875 -23.921875 C 2.859375 -23.191406 2.804688 -22.46875 2.765625 -21.75 Z M 2.765625 -21.75 "/></g></g></g></svg>